<svg width="256" height="256" viewBox="0 0 256 256" fill="none" xmlns="http://www.w3.org/2000/svg">
  <rect width="256" height="256" rx="72" fill="#FBF5EE"/>
  <rect x="12" y="12" width="232" height="232" rx="60" stroke="#D8C9B6" stroke-width="2"/>
  <circle cx="128" cy="128" r="84" fill="url(#paint0_linear)"/>
  <path d="M106.889 97.57C101.249 97.57 96.9891 99.97 96.0191 104.35C94.6591 110.39 99.6891 113.34 107.369 115.44C117.959 118.41 123.929 122.11 123.929 131.9C123.929 144.53 113.689 151.99 99.8391 151.99C89.4991 151.99 80.8491 148.14 75.7191 141.49L84.1991 133.6C88.0691 138.32 93.6691 141.33 100.589 141.33C107.609 141.33 112.929 138.39 112.929 133.1C112.929 128.38 109.119 126.76 100.479 124.22C90.1391 121.22 84.7891 116.37 84.7891 106.52C84.7891 94.53 95.1691 86.94 108.699 86.94C117.209 86.94 124.339 89.63 129.589 94.75L121.289 102.83C117.559 99.41 112.629 97.57 106.889 97.57Z" fill="#18202E"/>
  <path d="M157.216 152.13C138.136 152.13 126.226 138.51 126.226 119.45C126.226 100.4 138.136 86.94 157.216 86.94C176.216 86.94 188.186 100.4 188.186 119.45C188.186 138.51 176.216 152.13 157.216 152.13ZM157.216 141.17C169.276 141.17 176.256 132.31 176.256 119.45C176.256 106.61 169.276 97.89 157.216 97.89C145.106 97.89 138.126 106.61 138.126 119.45C138.126 132.31 145.106 141.17 157.216 141.17Z" fill="#B25D2F"/>
  <defs>
    <linearGradient id="paint0_linear" x1="65" y1="55" x2="197" y2="206" gradientUnits="userSpaceOnUse">
      <stop stop-color="#FFF8F0"/>
      <stop offset="1" stop-color="#E8DAC9"/>
    </linearGradient>
  </defs>
</svg>
